<?xml version="1.0" standalone="no"?>
<!DOCTYPE svg PUBLIC "-//W3C//DTD SVG 20010904//EN"
 "http://www.w3.org/TR/2001/REC-SVG-20010904/DTD/svg10.dtd">
<svg version="1.0" xmlns="http://www.w3.org/2000/svg"
 width="58.000000pt" height="57.000000pt" viewBox="0 0 58.000000 57.000000"
 preserveAspectRatio="xMidYMid meet">

<g transform="translate(0.000000,57.000000) scale(0.100000,-0.100000)"
fill="#000000" stroke="none">
<path d="M202 542 c-73 -26 -122 -69 -157 -136 -94 -183 35 -398 240 -400 82
0 130 19 184 72 25 25 40 42 34 38 -17 -9 -16 -1 1 32 7 15 12 35 10 45 -1 12
2 17 11 13 8 -3 17 0 21 6 4 6 3 8 -4 4 -14 -8 -24 9 -33 54 -6 30 -7 31 -8 8
0 -15 -6 -30 -13 -34 -8 -5 -9 0 -6 14 4 12 3 24 -2 27 -4 2 -11 -10 -14 -28
l-7 -32 -18 35 c-11 23 -15 44 -10 62 4 14 5 29 1 32 -3 3 0 6 6 6 7 0 12 6
12 14 0 22 38 30 56 12 17 -18 44 -21 44 -7 0 5 -6 16 -13 23 -7 7 -16 21 -19
30 -8 19 -44 14 -52 -8 -6 -16 -26 -19 -26 -3 0 5 5 7 10 4 7 -4 9 2 4 19 -4
16 -2 26 5 26 6 0 8 7 5 15 -4 8 -15 15 -25 15 -10 0 -19 6 -19 14 0 37 -142
55 -218 28z m152 -11 c7 -11 -22 -36 -31 -27 -3 3 0 6 7 6 9 0 7 5 -6 15 -19
14 -19 14 3 15 12 0 24 -4 27 -9z m-154 -21 c-29 -6 -31 -8 -10 -9 14 -2 19
-5 12 -8 -7 -3 -25 -2 -39 2 -37 9 -11 25 37 24 l35 -2 -35 -7z m-9 -30 c9 0
20 -7 23 -16 5 -12 2 -15 -11 -9 -20 8 -42 13 -60 14 -7 1 -13 6 -13 12 0 7 9
9 23 5 12 -3 29 -6 38 -6z m72 -15 c-22 -30 -33 -32 -33 -5 0 13 5 18 15 14 8
-4 15 -1 15 5 0 6 5 11 10 11 6 0 3 -11 -7 -25z m-99 -20 c37 -8 36 -21 -2
-19 -20 0 -41 2 -47 4 -5 1 -13 2 -17 1 -5 0 -8 3 -8 7 0 16 15 23 35 17 11
-3 29 -8 39 -10z m-21 -45 c4 0 6 4 3 8 -2 4 4 8 15 8 10 0 19 -4 19 -8 0 -8
-41 -27 -65 -32 -5 -1 -15 -5 -22 -9 -15 -10 -11 16 7 37 9 12 16 14 24 6 5
-5 14 -10 19 -10z m-66 -71 c2 -11 -1 -18 -6 -14 -6 3 -9 14 -8 25 2 23 10 17
14 -11z m128 -70 c-4 -6 -13 -8 -21 -5 -8 3 -17 -1 -21 -9 -4 -12 -8 -13 -20
-4 -11 10 -11 14 -1 20 19 13 70 11 63 -2z m65 -39 c0 -5 -15 -9 -32 -9 l-33
1 30 8 c17 4 31 8 33 9 1 0 2 -3 2 -9z m-90 -60 c0 -18 -19 -11 -30 11 -11 19
-10 20 9 9 12 -6 21 -15 21 -20z m136 -15 c-7 -35 -19 -45 -31 -24 -4 5 1 19
11 30 16 18 16 19 -2 20 -18 0 -18 1 1 8 27 11 29 8 21 -34z m-79 -13 c-23 -5
-47 4 -47 17 0 6 13 5 33 -2 23 -8 27 -12 14 -15z m-7 -43 c0 -4 -7 -6 -15 -3
-8 4 -15 10 -15 15 0 4 7 6 15 3 8 -4 15 -10 15 -15z m40 1 c0 -5 -4 -10 -9
-10 -6 0 -13 5 -16 10 -3 6 1 10 9 10 9 0 16 -4 16 -10z"/>
<path d="M101 396 c-10 -11 -9 -14 1 -12 14 2 23 15 15 22 -2 2 -10 -2 -16
-10z"/>
<path d="M520 261 c0 -23 18 -37 29 -25 5 5 0 17 -10 27 -18 16 -19 16 -19 -2z"/>
</g>
</svg>
